{"accessors" : [{"bufferView" : 0, "byteOffset" : 0, "componentType" : 5123, "count" : 2004, "type" : "SCALAR", "max" : [1610], "min" : [0]}, {"bufferView" : 1, "byteOffset" : 0, "componentType" : 5126, "count" : 1611, "type" : "VEC3", "max" : [0.525015115737915, 0.9358078241348267, 3.004643678665161], "min" : [-0.517551064491272, -1.9216070175170898, -3.6394498348236084], "name" : "POSITION"}, {"bufferView" : 1, "byteOffset" : 12, "componentType" : 5126, "count" : 1611, "type" : "VEC3", "max" : [0.9999823570251465, 1.0000044107437134, 0.9999686479568481], "min" : [-0.9999843835830688, -1.0000044107437134, -0.9998669624328613], "name" : "NORMAL"}, {"bufferView" : 1, "byteOffset" : 24, "componentType" : 5126, "count" : 1611, "type" : "VEC2", "max" : [0.875, 2], "min" : [0.125, 1], "name" : "TEXCOORD_0"}, {"bufferView" : 0, "byteOffset" : 4008, "componentType" : 5123, "count" : 72, "type" : "SCALAR", "max" : [59], "min" : [0]}, {"bufferView" : 2, "byteOffset" : 0, "componentType" : 5126, "count" : 60, "type" : "VEC3", "max" : [0.39619189500808716, -0.8268879652023315, 3.6659257411956787], "min" : [-0.4163113832473755, -1.839036226272583, 1.5876160860061646], "name" : "POSITION"}, {"bufferView" : 2, "byteOffset" : 12, "componentType" : 5126, "count" : 60, "type" : "VEC3", "max" : [0.9814164638519287, 0.9902898669242859, 0.9979326128959656], "min" : [-0.9677597880363464, -0.9801890254020691, 0.12580235302448273], "name" : "NORMAL"}, {"bufferView" : 2, "byteOffset" : 24, "componentType" : 5126, "count" : 60, "type" : "VEC2", "max" : [0.42947322130203247, 1.2163283824920654], "min" : [0.3814052939414978, 1.030783772468567], "name" : "TEXCOORD_0"}], "asset" : {"generator" : "Aspose.3D 24.1.0", "version" : "2.0"}, "buffers" : [{"uri" : "data:application/octet-stream;base64,", "byteLength" : 70596}], "bufferViews" : [{"buffer" : 0, "byteOffset" : 0, "byteLength" : 4152, "target" : 34963}, {"buffer" : 0, "byteOffset" : 4156, "byteLength" : 64128, "byteStride" : 32, "target" : 34962}, {"buffer" : 0, "byteOffset" : 68288, "byteLength" : 2304, "byteStride" : 32, "target" : 34962}], "materials" : [{"name" : "blue", "pbrMetallicRoughness" : {"baseColorFactor" : [0.36723586916923523, 0.36723586916923523, 0.36723586916923523, 1], "metallicFactor" : 0.7426470518112183, "roughnessFactor" : 0.3897058963775635}, "emissiveFactor" : [0, 0, 0], "alphaMode" : "OPAQUE", "doubleSided" : true}, {"name" : "zipper", "pbrMetallicRoughness" : {"baseColorFactor" : [0.14730150997638702, 0.02255701832473278, 0.09707269072532654, 1], "metallicFactor" : 0.036764707416296005, "roughnessFactor" : 0.22794118523597717}, "emissiveFactor" : [0, 0, 0], "alphaMode" : "OPAQUE", "doubleSided" : true}], "meshes" : [{"primitives" : [{"attributes" : {"POSITION" : 1, "NORMAL" : 2, "TEXCOORD_0" : 3}, "indices" : 0, "material" : 0, "mode" : 4}, {"attributes" : {"POSITION" : 5, "NORMAL" : 6, "TEXCOORD_0" : 7}, "indices" : 4, "material" : 1, "mode" : 4}]}], "nodes" : [{"matrix" : [1, 0, 0, 0, 0, 1, 0, 0, 0, 0, 1, 0, 0.48476141691207886, 29.36336898803711, -0.027183571830391884, 1], "mesh" : 0, "name" : ".004"}], "scene" : 0, "scenes" : [{"nodes" : [0]}]}